# xmcd
#
# Track frame offsets: 
#        182
#        16520
#        40460
#        53925
#        75620
#        103117
#        116405
#        136370
#        156860
#        199692
#
# Disc length: 3124 seconds
#
# Revision: 2
# Processed by: cddbd v1.5.2PL0 Copyright (c) Steve Scherf et al.
# Submitted via: ExactAudioCopyFreeDBPlugin 1.0
#
DISCID=7b0c320a
DTITLE=Larry Garner - Too Blues
DYEAR=1994
DGENRE=Blues
TTITLE0=Shak Bully
TTITLE1=Dog House Blues
TTITLE2=Don't Dish it Out
TTITLE3=Thought I Had The Blues
TTITLE4=Mr. And Mrs. Pain
TTITLE5=Kleptomaniac
TTITLE6=Born to Sing the Blues
TTITLE7=She Should've Been Back
TTITLE8=Love Her With A Feeling
TTITLE9=Somebody
EXTD=
EXTT0=
EXTT1=
EXTT2=
EXTT3=
EXTT4=
EXTT5=
EXTT6=
EXTT7=
EXTT8=
EXTT9=
PLAYORDER=
